# xmcd
#
# Track frame offsets:
#	150
#	9992
#	24625
#	37647
#	50542
#	64237
#	76060
#	92775
#	109050
#	123900
#	134470
#	148592
#	163482
#	176472
#	188562
#	200407
#	214132
#	228640
#	245990
#	258260
#
# Disc length: 3689 seconds
#
# Revision: 0
# Processed by: cddbd v1.4PL0 Copyright (c) Steve Scherf et al.
# Submitted via: EasyCDDAExtractor 4.6.0.1
#
DISCID=170e6714
DTITLE=Anne Murray - The Signature Series Volume 3 (Anne Murray, Glen Campbell
DTITLE=/Danny's Song)
DYEAR=1998
DGENRE=Country/Pop
TTITLE0=You're Easy To Love
TTITLE1=Medley: I Say A Little Prayer/By The Time I Get To Phoenix
TTITLE2=We All Pull The Load
TTITLE3=Canadian Sunset
TTITLE4=Bring Back The Love
TTITLE5=United We Stand
TTITLE6=Love Story (You and Me)
TTITLE7=Ease Your Pain
TTITLE8=Let Me Be The One
TTITLE9=Me Ecstasy
TTITLE10=Danny's Song
TTITLE11=Killing Me Softly With His Song
TTITLE12=He Thinks I Still Care
TTITLE13=Let Sunshine Have It's Day
TTITLE14=I'll Be Home
TTITLE15=What About Me
TTITLE16=I Know
TTITLE17=Ease Your Pain
TTITLE18=One Day I Walk
TTITLE19=Put Your Hand In The Hand
EXTD=
EXTT0=
EXTT1=
EXTT2=
EXTT3=
EXTT4=
EXTT5=
EXTT6=
EXTT7=
EXTT8=
EXTT9=
EXTT10=
EXTT11=
EXTT12=
EXTT13=
EXTT14=
EXTT15=
EXTT16=
EXTT17=
EXTT18=
EXTT19=
PLAYORDER=
